<?xml version="1.0" encoding="UTF-8" standalone="no"?>
<svg
   width="33.895779mm"
   height="33.67984mm"
   viewBox="0 0 400.34346 397.793"
   version="1.1"
   id="svg1"
   sodipodi:docname="nc_logo_unset_colors.svg"
   inkscape:version="1.3.2 (091e20e, 2023-11-25)"
   inkscape:export-filename="nc_logo_unset_colors.png"
   inkscape:export-xdpi="96"
   inkscape:export-ydpi="96"
   xmlns:inkscape="http://www.inkscape.org/namespaces/inkscape"
   xmlns:sodipodi="http://sodipodi.sourceforge.net/DTD/sodipodi-0.dtd"
   xmlns="http://www.w3.org/2000/svg"
   xmlns:svg="http://www.w3.org/2000/svg">
  <defs
     id="defs1">
    <linearGradient
       id="swatch4"
       inkscape:swatch="solid">
      <stop
         style="stop-color:#000000;stop-opacity:1;"
         offset="0"
         id="stop4" />
    </linearGradient>
  </defs>
  <sodipodi:namedview
     id="namedview1"
     pagecolor="#ffffff"
     bordercolor="#000000"
     borderopacity="0.25"
     inkscape:showpageshadow="2"
     inkscape:pageopacity="0.0"
     inkscape:pagecheckerboard="0"
     inkscape:deskcolor="#d1d1d1"
     inkscape:document-units="mm"
     showgrid="false"
     inkscape:zoom="7.0403388"
     inkscape:cx="47.724976"
     inkscape:cy="51.275941"
     inkscape:window-width="1920"
     inkscape:window-height="1027"
     inkscape:window-x="0"
     inkscape:window-y="25"
     inkscape:window-maximized="1"
     inkscape:current-layer="layer1" />
  <g
     inkscape:groupmode="layer"
     id="layer1"
     inkscape:label="all"
     transform="matrix(1.001113,0,0,1.0011195,-0.44499001,-6.7428989e-4)">
    <ellipse
       style="fill:#000000;fill-opacity:0"
       id="path1"
       ry="190.65237"
       rx="191.76205"
       cy="198.85388"
       cx="200.40741"
       inkscape:label="circle" />
    <path
       id="Selection"
       fill="none"
       stroke-width="1"
       d="m 142.5037,290.293 c -2.52,-0.48 -6.62,-1.05 -8.57,-2.73 -3.58,-3.11 -2.43,-14.58 -2.43,-19.27 v -21 c -0.02,-10.95 -1.7,-20.7 -14,-23.76 -2.92,-0.73 -5.99,-1.21 -9,-1.21 -3.99,0 -9.279995,1.01 -12.999995,2.44 -6.14,2.35 -10.89,5.47 -16,9.53 0,-2.36 0.28,-6.73 -1.02,-8.69 -1.54,-2.31 -4.49,-2.33 -6.98,-2.27 l -17,0.96 c -2.31,0 -8.37,-0.56 -8.37,3 0,2.67 3.49,3.08 5.36,3.78 3.06,1.15 4.52,2.13 5.75,5.26 1.31,3.36 1.25,7.41 1.26,10.96 v 29 c 0,2.83 0.21,6.41 -1.17,8.94 -1.97,3.61 -5.16,4.27 -8.83,5.06 0.87,4.93 2.2,4.91 7,5 h 26 c 4.67,-0.03 6.54,0.36 9,-4 -3.15,-1.35 -7.1,-2.18 -9.07,-5.14 -2.62,-3.95 -1.93,-13.97 -1.93,-18.86 0,-4.09 -0.42,-20.25 0.6,-23 2.27,-6.14 13.1,-11.47 19.4,-11.51 9.969995,-0.07 9.989995,12.36 9.999995,19.51 v 24 c 0,2.78 0.21,6.42 -1.17,8.89 -1.76,3.14 -5.76,4.51 -8.829995,6.11 2.249995,3.99 3.579995,3.91 7.999995,4 h 28 c 4.8,-0.09 6.13,-0.07 7,-5 z m 75,-9 c -8.62,-3.3 -8.43,5.32 -22,6.66 -3.99,0.4 -7.79,-0.87 -11,-3.23 -11.5,-8.45 -11.96,-28.79 -8.51,-41.43 1.7,-6.22 6.15,-14.07 13.22,-14.99 4.35,-0.56 6.11,2.59 7.7,5.99 2.48,5.36 4.44,14.64 10.61,16.31 6.03,1.64 12.67,-4 11.75,-11.31 -1.57,-12.59 -16.09,-16.74 -26.77,-16.99 -23.83,-0.54 -40.87,11.19 -42.49,35.99 -0.64,9.88 3.07,22.93 10.58,29.67 6.3,5.66 13.79,7.51 21.91,8.48 14.67,1.76 27.41,-1.02 35,-15.15 z"
       sodipodi:nodetypes="ccsccscccccscccsccccccscccscccccccccccccccccc" />
    <path
       style="opacity:1;fill:#020202;fill-opacity:1;fill-rule:evenodd;stroke-width:25;stroke-dasharray:none"
       d="M 59.159085,125.05168 C 40.156096,123.41398 23.238482,113.47888 12.694995,97.765019 7.1785382,89.543375 3.81181,80.19889 2.5981955,69.740962 c -0.24149,-2.080963 -0.24149,-10.134359 0,-12.215321 C 3.8283839,46.924892 7.2091046,37.624218 12.887352,29.219224 21.290667,16.780557 34.077241,7.7651014 48.664422,3.9938091 53.743317,2.6807384 58.671514,2.0624909 64.059417,2.0624909 c 14.231183,0 27.594506,4.724086 38.857733,13.7366501 2.29106,1.833243 6.03008,5.459231 7.95395,7.713479 8.31002,9.737097 13.13145,20.931399 14.64954,34.013021 0.24149,2.080962 0.24149,10.134358 0,12.215321 -1.52931,13.178334 -6.41606,24.448421 -14.84658,34.239958 -1.88506,2.1894 -5.50994,5.68775 -7.75691,7.48616 -9.981928,7.98929 -21.623416,12.60431 -34.297614,13.59657 -2.111329,0.16529 -7.482483,0.1585 -9.460451,-0.012 z m 4.97034,-30.239879 c 0.585354,-0.16787 1.448239,-0.505462 1.917521,-0.750207 1.039791,-0.542279 2.960196,-2.438867 3.52091,-3.477242 l 0.395051,-0.731583 -0.606626,-0.163347 c -1.025598,-0.276165 -1.680642,-0.109433 -3.046749,0.775508 -1.494489,0.968104 -2.83877,1.418189 -4.249657,1.422847 -3.888626,0.01284 -6.594867,-4.861319 -6.024663,-10.850899 0.412236,-4.330241 1.956731,-7.09085 4.296829,-7.680093 0.536893,-0.135192 0.725475,-0.124342 1.121131,0.0645 0.65296,0.311655 1.025717,0.912402 1.914021,3.084693 0.861116,2.105808 1.114484,2.561002 1.783653,3.204483 0.59049,0.56782 1.079278,0.754414 1.97621,0.754414 1.314576,0 2.424591,-0.754503 2.967833,-2.017304 0.262691,-0.610641 0.307211,-0.921289 0.253031,-1.765546 -0.185449,-2.88967 -2.673933,-4.931919 -6.818678,-5.595952 -1.750729,-0.280485 -5.103167,-0.111621 -6.854624,0.345272 -4.508248,1.176043 -7.368531,4.014388 -8.487673,8.422572 -0.267812,1.054879 -0.316003,1.616172 -0.308552,3.593769 0.01059,2.811171 0.237233,3.83167 1.354069,6.096977 0.591123,1.198992 0.925573,1.676276 1.757806,2.508509 2.162498,2.162498 5.690957,3.245801 10.157357,3.118496 1.405544,-0.04006 2.201684,-0.136147 2.9818,-0.35987 z m -35.88381,-0.412635 c 0.409747,-0.270141 0.940657,-0.958889 0.942385,-1.222555 5.14e-4,-0.07852 -0.398547,-0.295766 -0.886805,-0.482769 -0.956034,-0.366165 -1.598058,-0.761022 -1.980203,-1.217862 -0.541118,-0.64689 -0.612002,-1.494499 -0.612002,-7.318098 0,-5.51513 0.0053,-5.620496 0.313648,-6.196891 0.837491,-1.565688 3.794508,-3.177658 5.82913,-3.177658 1.833071,0 2.631256,1.185785 2.897509,4.30455 0.20093,2.353609 0.09409,11.114925 -0.142367,11.674794 -0.287093,0.679756 -0.944659,1.260566 -2.011432,1.776636 -0.545537,0.263915 -0.991885,0.539848 -0.991885,0.613187 0,0.07334 0.134005,0.350168 0.297789,0.615176 0.562466,0.910089 0.492572,0.901063 6.978541,0.901063 6.508549,0 6.327322,0.02524 6.729477,-0.937251 0.363189,-0.869231 0.289025,-1.012699 -0.618668,-1.196795 -1.457691,-0.295646 -1.99601,-0.610931 -2.349175,-1.375871 -0.30693,-0.664802 -0.315972,-0.842826 -0.39889,-7.853172 -0.08915,-7.537346 -0.11124,-7.795622 -0.779468,-9.114306 -0.759404,-1.498611 -1.946663,-2.388491 -3.893984,-2.918641 -1.366249,-0.371953 -4.515607,-0.335013 -5.993137,0.07029 -1.398216,0.383553 -3.135103,1.216429 -4.633341,2.221793 -0.6495,0.435834 -1.208777,0.792426 -1.242837,0.792426 -0.03406,0 -0.06193,-0.353598 -0.06193,-0.785775 0,-0.972956 -0.262535,-1.628335 -0.797344,-1.990455 -0.361964,-0.245085 -0.63458,-0.274707 -2.327506,-0.2529 -1.054637,0.01359 -3.085565,0.08216 -4.513173,0.152389 -2.263673,0.111357 -2.64517,0.164502 -2.982812,0.415526 -0.271432,0.2018 -0.400107,0.439004 -0.430478,0.793562 -0.0566,0.660755 0.304075,0.997675 1.490773,1.392584 1.177866,0.391968 1.659262,0.814861 2.057982,1.807879 0.323667,0.806097 0.325578,0.851016 0.327588,7.6997 0.002,6.853361 3.89e-4,6.891924 -0.314352,7.480576 -0.402544,0.752869 -0.90572,1.107711 -2.003608,1.412952 -0.481739,0.133935 -0.875889,0.305519 -0.875889,0.3813 0,0.435499 0.383536,1.293646 0.683703,1.529757 0.331829,0.261016 0.630794,0.274382 6.117796,0.273491 5.412072,-8.77e-4 5.794035,-0.0175 6.174964,-0.268637 z"
       id="path14"
       transform="scale(3.124997)" />
  </g>
</svg>
